<svg xmlns="http://www.w3.org/2000/svg" width="400" height="400" viewBox="0 0 400 400">
  <g id="Group_2304" data-name="Group 2304" transform="translate(-4500 13585)">
    <rect id="Rectangle_145" data-name="Rectangle 145" width="400" height="400" rx="52" transform="translate(4500 -13585)" fill="#ff5c3c"/>
    <g id="Group_1572" data-name="Group 1572" transform="translate(23671.422 362.04)">
      <path id="Icon_awesome-sign" data-name="Icon awesome-sign" d="M233.686,40.116H73.855V.435A8.46,8.46,0,0,0,65.42-8H48.551A8.46,8.46,0,0,0,40.116.435V40.116H.435A8.46,8.46,0,0,0-8,48.551V65.42A8.46,8.46,0,0,0,.435,73.855H40.116v194a8.46,8.46,0,0,0,8.435,8.435H65.42a8.46,8.46,0,0,0,8.435-8.435v-194H233.686a8.46,8.46,0,0,0,8.435-8.435V48.551A8.46,8.46,0,0,0,233.686,40.116Z" transform="translate(-19097.482 -13885.186)" fill="#fff"/>
      <path id="Rectangle_83" data-name="Rectangle 83" d="M34.791,34.791V148.345h78.744V34.791H34.791M8.35,0H139.975a8.35,8.35,0,0,1,8.35,8.35V174.785a8.35,8.35,0,0,1-8.35,8.35H8.35A8.35,8.35,0,0,1,0,174.785V8.35A8.35,8.35,0,0,1,8.35,0Z" transform="translate(-19003.686 -13792.03)" fill="#fff"/>
    </g>
  </g>
</svg>
