<svg xmlns="http://www.w3.org/2000/svg" width="949.933" height="171.161" viewBox="0 0 949.933 171.161">
  <g id="Group_2744" data-name="Group 2744" transform="translate(-6449.656 11988)">
    <path id="Path_233" data-name="Path 233" d="M-370.961-.708V-101.387q0-.708.779-.708h12.319a.626.626,0,0,1,.708.708v88.359a.626.626,0,0,0,.708.708h50.764a.626.626,0,0,1,.708.708v10.9a.626.626,0,0,1-.708.708h-64.5Q-370.961,0-370.961-.708Zm90.611-100.679v15.222q0,.708-.779.779h-15.222q-.708,0-.708-.779v-15.222a.626.626,0,0,1,.708-.708h15.222Q-280.35-102.095-280.35-101.387Zm-1.487,28.745V-.708a.626.626,0,0,1-.708.708h-12.319a.626.626,0,0,1-.708-.708V-72.642a.626.626,0,0,1,.708-.708h12.319A.626.626,0,0,1-281.837-72.642Zm75.459,24.072h-12.461a.626.626,0,0,1-.708-.708,11.626,11.626,0,0,0-4.673-9.7q-4.744-3.54-12.957-3.54t-12.178,2.761q-3.965,2.761-3.965,6.443.071,3.682,1.77,4.956a29.355,29.355,0,0,0,3.257,2.266q1.7.991,14.231,2.407,12.461,1.416,19.329,4.39,11.045,4.956,11.045,17.134t-8.779,17.913q-8.638,5.664-23.789,5.664T-259.9-5.806a22.947,22.947,0,0,1-8.5-18.267.626.626,0,0,1,.708-.708h12.178q.85,0,.85.708,0,5.664,5.239,9.417t13.806,3.752q18.125,0,18.125-10.974a6.317,6.317,0,0,0-1.77-4.673,9.673,9.673,0,0,0-3.611-2.407q-1.77-.637-2.62-.92a18.01,18.01,0,0,0-2.761-.566q-1.912-.283-3.682-.637a18.734,18.734,0,0,0-3.682-.354q-16.213-1.982-21.1-4.814-7.222-4.036-9.133-9.275a23.791,23.791,0,0,1-1.274-7.717q0-9.133,8.142-15.364t21.736-6.23q13.594,0,22.585,6.584,8.921,6.584,8.921,18.975Q-205.811-48.569-206.377-48.569Zm53.511,36.958v10.9q0,.708-.779.708H-164.76q-18.975.425-19.045-17.134v-44.6a.7.7,0,0,0-.708-.779H-197.4a.626.626,0,0,1-.708-.708v-9.417a.626.626,0,0,1,.708-.708h12.886q.708,0,.708-.779V-93.669q0-.708.779-.708h12.319a.626.626,0,0,1,.708.708v19.541a.7.7,0,0,0,.708.779h15.647a.7.7,0,0,1,.779.708v9.417q0,.708-.779.708h-15.647q-.708,0-.708.779v42.2q0,7.222,7.859,7.222h8.5Q-152.866-12.319-152.866-11.611Zm26.395-89.775v15.222q0,.708-.779.779h-15.222q-.708,0-.708-.779v-15.222a.626.626,0,0,1,.708-.708h15.222Q-126.471-102.095-126.471-101.387Zm-1.487,28.745V-.708a.626.626,0,0,1-.708.708h-12.319a.626.626,0,0,1-.708-.708V-72.642a.626.626,0,0,1,.708-.708h12.319A.626.626,0,0,1-127.958-72.642Zm17.049-.708h10.9q.425,0,.708.708l1.416,6.514a.779.779,0,0,0,.779.566.953.953,0,0,0,.85-.425q6.372-8.85,18.975-8.85,15.081,0,23.364,9.629t8.284,24.639V-.708q0,.708-.779.708H-58.729a.626.626,0,0,1-.708-.708V-40.569q0-9.275-4.6-15.647-4.673-6.3-14.019-6.3t-14.585,6.443a23.8,23.8,0,0,0-5.239,15.505V-.708A.626.626,0,0,1-98.59,0h-12.319a.626.626,0,0,1-.708-.708V-72.642A.626.626,0,0,1-110.909-73.35Zm94.363,17.983q-5.947,7.222-5.947,18.691t5.947,18.621Q-10.6-10.9-.616-10.9t15.505-7.08q5.522-7.08,5.522-18.691T14.889-55.366q-5.522-7.08-15.505-7.08T-16.546-55.366ZM-.191,17.842q10.62,0,15.647-6.018A21.7,21.7,0,0,0,20.412-2.761V-6.655a.686.686,0,0,0-.5-.637q-.5-.212-.92.354-1.77,2.407-7.93,5.381A29.135,29.135,0,0,1-1.749,1.416q-14.939,0-24.709-10.62t-9.771-27.612q0-16.992,9.346-27.471T-1.749-74.836a30.732,30.732,0,0,1,11.4,2.478A27.813,27.813,0,0,1,19-66.694q.991.991,1.416-.142L21.9-72.642q.283-.708.708-.708h10.9a.626.626,0,0,1,.708.708v69.88q0,14.656-9.487,23.789T1.012,30.161q-14.231,0-23.506-6.372T-32.618,8.567a.626.626,0,0,1,.708-.708h12.6q.425,0,.708.708,1.133,3.328,5.806,6.3T-.191,17.842ZM65.215-21.523Q73.357-10.9,88.437-10.9t23.152-10.62q8.071-10.62,8.142-29.524,0-18.975-8.142-29.595-8.213-10.549-23.223-10.549T65.215-80.571q-8.142,10.62-8.142,29.524T65.215-21.523ZM134.1-51.047q0,23.789-11.753,38.162Q110.6,1.416,88.437,1.416t-34.055-14.3Q42.558-27.258,42.629-51.047q0-23.789,11.753-38.162,11.753-14.3,33.984-14.3t33.984,14.3Q134.1-74.907,134.1-51.047Zm63.211,32.993q5.947-7.151,5.947-18.621T197.315-55.3q-5.947-7.151-16-7.151t-15.505,7.08q-5.452,7.08-5.452,18.691t5.522,18.691q5.522,7.08,15.435,7.08Q191.3-10.9,197.315-18.054Zm-50.056-55.3h10.9q.425,0,.708.708l1.487,5.947q.283.566.708.566a.832.832,0,0,0,.708-.425q2.9-3.186,9.133-5.735a30.811,30.811,0,0,1,11.611-2.549q15.789.071,25.134,10.549T217-36.675q0,17.134-9.346,27.612T182.517,1.416a28.246,28.246,0,0,1-12.673-2.974q-6.018-2.974-8.071-5.239-.566-.566-.991-.354a.68.68,0,0,0-.425.637v34.48q0,.708-.779.779H147.259q-.708,0-.708-.779V-72.642A.626.626,0,0,1,147.259-73.35ZM280.775-43.33a19.874,19.874,0,0,0-5.168-13.24q-5.239-5.947-14.939-5.947t-15.222,6.443q-5.522,6.443-5.522,12.744a.626.626,0,0,0,.708.708h39.436A.626.626,0,0,0,280.775-43.33Zm15.081,6.655q0,4.885-1.133,4.885H240.631q-.708,0-.708.779a19.826,19.826,0,0,0,5.664,14.16q5.664,5.947,14.939,5.947,13.027,0,18.408-10.125a1,1,0,0,1,.991-.708h12.886q.85,0,.779.708A27.557,27.557,0,0,1,281.907-4.46q-8.921,5.947-21.382,5.876-16.072,0-25.7-10.479-9.558-10.479-9.558-27.754t9.346-27.612q9.346-10.337,25.984-10.337T286.58-64.429Q295.926-53.95,295.855-36.675ZM307.311-73.35h10.9q.425,0,.708.708l1.416,6.514a.779.779,0,0,0,.779.566.953.953,0,0,0,.85-.425q6.372-8.85,18.975-8.85,15.081,0,23.364,9.629t8.284,24.639V-.708q0,.708-.779.708H359.491a.626.626,0,0,1-.708-.708V-40.569q0-9.275-4.6-15.647-4.673-6.3-14.019-6.3t-14.585,6.443a23.8,23.8,0,0,0-5.239,15.505V-.708A.626.626,0,0,1,319.63,0H307.311a.626.626,0,0,1-.708-.708V-72.642A.626.626,0,0,1,307.311-73.35Z" transform="translate(7027 -11847)"/>
    <g id="Group_2743" data-name="Group 2743">
      <path id="Icon_awesome-sign" data-name="Icon awesome-sign" d="M126.486,18.774H37.548V-3.306A4.707,4.707,0,0,0,32.855-8H23.468a4.707,4.707,0,0,0-4.694,4.694V18.774H-3.306A4.707,4.707,0,0,0-8,23.468v9.387a4.707,4.707,0,0,0,4.694,4.694H18.774V145.5a4.707,4.707,0,0,0,4.694,4.694h9.387a4.707,4.707,0,0,0,4.694-4.694V37.548h88.938a4.707,4.707,0,0,0,4.694-4.694V23.468A4.707,4.707,0,0,0,126.486,18.774Z" transform="translate(6457.656 -11980)" fill="#ff5c3c"/>
      <path id="Rectangle_83" data-name="Rectangle 83" d="M18,18V83.905H64.535V18H18M6,0H76.535a6,6,0,0,1,6,6V95.905a6,6,0,0,1-6,6H6a6,6,0,0,1-6-6V6A6,6,0,0,1,6,0Z" transform="translate(6506.301 -11931.712)" fill="#ff5c3c"/>
    </g>
  </g>
</svg>
